<?xml version="1.0" encoding="UTF-8"?><svg xmlns="http://www.w3.org/2000/svg" xmlns:xlink="http://www.w3.org/1999/xlink" viewBox="0 0 538.26 525.96"><defs><style>.cls-1{fill:url(#linear-gradient);}.cls-1,.cls-2,.cls-3,.cls-4,.cls-5,.cls-6,.cls-7,.cls-8,.cls-9{stroke-width:0px;}.cls-2{fill:#606060;}.cls-3,.cls-5,.cls-6,.cls-10{fill-rule:evenodd;}.cls-11{isolation:isolate;}.cls-5{fill:url(#Degradado_sin_nombre_6);}.cls-6{fill:#f4bc7e;}.cls-7{fill:url(#linear-gradient-2);}.cls-12{mix-blend-mode:multiply;opacity:.5;}.cls-8{fill:url(#linear-gradient-3);}.cls-10{fill:none;stroke:#000;stroke-miterlimit:10;stroke-width:27px;}.cls-9{fill:url(#linear-gradient-4);}</style><linearGradient id="Degradado_sin_nombre_6" x1="-1472.98" y1="450.57" x2="-1417.91" y2="446.52" gradientTransform="translate(-1027.17 3.24) rotate(179.74) scale(1 -1)" gradientUnits="userSpaceOnUse"><stop offset=".1" stop-color="#606060"/><stop offset=".8" stop-color="#505050"/></linearGradient><linearGradient id="linear-gradient" x1="-336.9" y1="-3519.32" x2="-173.77" y2="-3519.32" gradientTransform="translate(2195.66 2644.54) rotate(135) scale(1.27 -.9)" gradientUnits="userSpaceOnUse"><stop offset="0" stop-color="#231f20"/><stop offset="1" stop-color="#fff" stop-opacity="0"/></linearGradient><linearGradient id="linear-gradient-2" x1="-254.88" y1="-3327.66" x2="-140.53" y2="-3327.66" gradientTransform="translate(2226.45 2613.75) rotate(135) scale(1.26 -.9)" gradientUnits="userSpaceOnUse"><stop offset="0" stop-color="#fff" stop-opacity="0"/><stop offset="1" stop-color="#231f20"/></linearGradient><linearGradient id="linear-gradient-3" x1="-254.88" y1="-3327.66" x2="-140.53" y2="-3327.66" gradientTransform="translate(2226.45 2613.75) rotate(135) scale(1.26 -.9)" xlink:href="#linear-gradient"/><linearGradient id="linear-gradient-4" x1="-254.88" y1="-3327.66" x2="-140.53" y2="-3327.66" gradientTransform="translate(2226.45 2613.75) rotate(135) scale(1.26 -.9)" xlink:href="#linear-gradient"/></defs><g class="cls-11"><g id="Capa_2"><g id="Layer_1"><path class="cls-5" d="m476.74,460.45l-59.7-59.81c-7.3-7.31-53.34,10.56-46.04,17.87l73.74,73.87c-7.3-7.31,24.7-39.25,32-31.94"/><path class="cls-6" d="m444.74,492.39l55.27,25.67c1.46.68,2.98-.83,2.3-2.29l-25.57-55.32c-7.3-7.31-39.3,24.63-32,31.94"/><path class="cls-3" d="m475.65,506.75l24.78,11.51c1.32.61,2.68-.75,2.07-2.07l-11.47-24.8c-3.51-3.52-18.9,11.84-15.39,15.36"/><path class="cls-4" d="m257.52,101.8c6.32,8.7,1.58,29.5-42.05,102.73-26.55,44.56-53.98,93.07-43.25,104.71l-50.42-50.42c-7.63-10.48,3.77-38.34,42.1-102.77,32.88-55.28,52.81-94.23,43.2-104.66l50.42,50.42"/><path class="cls-4" d="m257.52,101.8c6.32,8.7,1.58,29.5-42.05,102.73-26.55,44.56-53.98,93.07-43.25,104.71l-50.42-50.42c-7.63-10.48,3.77-38.34,42.1-102.77,32.88-55.28,52.81-94.23,43.2-104.66l50.42,50.42"/><g class="cls-12"><path class="cls-1" d="m257.52,101.8c6.32,8.7,1.58,29.5-42.05,102.73-26.55,44.56-53.98,93.07-43.25,104.71l-50.42-50.42c-7.63-10.48,3.77-38.34,42.1-102.77,32.88-55.28,52.81-94.23,43.2-104.66l50.42,50.42"/><path class="cls-1" d="m257.52,101.8c6.32,8.7,1.58,29.5-42.05,102.73-26.55,44.56-53.98,93.07-43.25,104.71l-50.42-50.42c-7.63-10.48,3.77-38.34,42.1-102.77,32.88-55.28,52.81-94.23,43.2-104.66l50.42,50.42"/></g><path class="cls-4" d="m334.7,268.06c6.68,8.34,5.83,25.25-20.03,80.7-15.73,33.74-31.6,70.7-20.74,82.2l-50.42-50.42c-8.07-10.05-2.63-31.93,20.06-80.73,19.46-41.87,30.44-71.86,20.71-82.17l50.42,50.42"/><path class="cls-4" d="m334.7,268.06c6.68,8.34,5.83,25.25-20.03,80.7-15.73,33.74-31.6,70.7-20.74,82.2l-50.42-50.42c-8.07-10.05-2.63-31.93,20.06-80.73,19.46-41.87,30.44-71.86,20.71-82.17l50.42,50.42"/><g class="cls-12"><path class="cls-7" d="m334.7,268.06c6.68,8.34,5.83,25.25-20.03,80.7-15.73,33.74-31.6,70.7-20.74,82.2l-50.42-50.42c-8.07-10.05-2.63-31.93,20.06-80.73,19.46-41.87,30.44-71.86,20.71-82.17l50.42,50.42"/><path class="cls-7" d="m334.7,268.06c6.68,8.34,5.83,25.25-20.03,80.7-15.73,33.74-31.6,70.7-20.74,82.2l-50.42-50.42c-8.07-10.05-2.63-31.93,20.06-80.73,19.46-41.87,30.44-71.86,20.71-82.17l50.42,50.42"/></g><path class="cls-2" d="m294.01,431.03c8.13,6.88,22.86,8.22,68.31-7.63,27.65-9.65,58.11-19.02,69.53-8.08l-50.42-50.42c-9.81-8.31-28.33-6.24-68.33,7.66-34.32,11.92-59.27,17.85-69.51,8.05l50.42,50.42"/><g class="cls-12"><path class="cls-8" d="m334.7,268.06c6.68,8.34,5.83,25.25-20.03,80.7-15.73,33.74-31.6,70.7-20.74,82.2l-50.42-50.42c-8.07-10.05-2.63-31.93,20.06-80.73,19.46-41.87,30.44-71.86,20.71-82.17l50.42,50.42"/><path class="cls-9" d="m334.7,268.06c6.68,8.34,5.83,25.25-20.03,80.7-15.73,33.74-31.6,70.7-20.74,82.2l-50.42-50.42c-8.07-10.05-2.63-31.93,20.06-80.73,19.46-41.87,30.44-71.86,20.71-82.17l50.42,50.42"/></g><path class="cls-2" d="m50.42,187.42c11.04,6.96,39.22-4.79,104.02-43.34,47.28-28.13,92.49-52.72,103.08-42.28l-50.42-50.42c-10.48-7.64-38.34,3.77-102.77,42.1C60.01,119.83,11.75,147.1,0,136.99l50.42,50.42"/><path class="cls-2" d="m172.14,309.14c10.41,7.58,32.53,1.91,81.59-20.92,35.8-16.66,70.4-30.63,80.97-20.17l-50.42-50.42c-10.05-8.07-31.93-2.63-80.73,20.06-33.56,15.6-70.33,31.38-81.83,21.03l50.42,50.42"/><path class="cls-10" d="m524.76,482.22V24.7c0-6.18-5.01-11.2-11.2-11.2H37c-6.18,0-11.2,5.01-11.2,11.2v62.65"/><path class="cls-10" d="m25.8,210.24v291.02c0,6.18,5.01,11.2,11.2,11.2h387.55"/></g></g></g></svg>