<?xml version="1.0" encoding="UTF-8"?><svg id="Capa_1" xmlns="http://www.w3.org/2000/svg" viewBox="0 0 22 22"><defs><style>.cls-1,.cls-2{fill:#02372f;stroke-width:0px;}.cls-1,.cls-3{fill-rule:evenodd;}.cls-3{fill:none;stroke:#02372f;stroke-miterlimit:10;}</style></defs><path class="cls-1" d="M17.1,16.54l-1.7-1.7c-.21-.21-1.52.3-1.31.51l2.1,2.1c-.21-.21.7-1.12.91-.91"/><path class="cls-1" d="M17.07,17.85l.71.33s.08-.02.06-.06l-.33-.71c-.1-.1-.54.34-.44.44"/><path class="cls-2" d="M10.86,6.33c.18.25.05.84-1.2,2.92-.76,1.27-1.54,2.65-1.23,2.98l-1.44-1.44c-.22-.3.11-1.09,1.2-2.93.94-1.57,1.5-2.68,1.23-2.98l1.44,1.44"/><path class="cls-2" d="M10.86,6.33c.18.25.05.84-1.2,2.92-.76,1.27-1.54,2.65-1.23,2.98l-1.44-1.44c-.22-.3.11-1.09,1.2-2.93.94-1.57,1.5-2.68,1.23-2.98l1.44,1.44"/><path class="cls-2" d="M13.06,11.06c.19.24.17.72-.57,2.3-.45.96-.9,2.01-.59,2.34l-1.44-1.44c-.23-.29-.07-.91.57-2.3.55-1.19.87-2.05.59-2.34l1.44,1.44"/><path class="cls-2" d="M13.06,11.06c.19.24.17.72-.57,2.3-.45.96-.9,2.01-.59,2.34l-1.44-1.44c-.23-.29-.07-.91.57-2.3.55-1.19.87-2.05.59-2.34l1.44,1.44"/><path class="cls-2" d="M11.9,15.7c.23.2.65.23,1.94-.22.79-.27,1.65-.54,1.98-.23l-1.44-1.44c-.28-.24-.81-.18-1.94.22-.98.34-1.69.51-1.98.23l1.44,1.44"/><path class="cls-2" d="M4.97,8.76c.31.2,1.12-.14,2.96-1.23,1.35-.8,2.63-1.5,2.93-1.2l-1.44-1.44c-.3-.22-1.09.11-2.93,1.2-1.26.75-2.63,1.53-2.97,1.24l1.44,1.44"/><path class="cls-2" d="M8.43,12.23c.3.22.93.05,2.32-.6,1.02-.47,2-.87,2.3-.57l-1.44-1.44c-.29-.23-.91-.07-2.3.57-.96.44-2,.89-2.33.6l1.44,1.44"/><path class="cls-3" d="M18.47,17.16V4.13c0-.18-.14-.32-.32-.32H4.58c-.18,0-.32.14-.32.32v1.78"/><path class="cls-3" d="M4.27,9.41v8.28c0,.18.14.32.32.32h11.03"/></svg>